<svg width="610.0284423828125px" height="130.22703857421874px" xmlns="http://www.w3.org/2000/svg" viewBox="-55.01422119140625 9.88648071289063 610.0284423828125 130.22703857421874" style="background: none;" preserveAspectRatio="xMidYMid"><defs><linearGradient id="editing-shadow-gradient1" x1="0" x2="0" y1="0" y2="1"><stop offset="0" stop-color="#000000" stop-opacity="0"></stop><stop offset="0.2" stop-color="#000000" stop-opacity="0"></stop><stop offset="1" stop-color="#000000" stop-opacity="1"></stop></linearGradient><linearGradient id="editing-shadow-gradient2" x1="-0.5" x2="1.5" y1="0.5" y2="0.5"><stop offset="0" stop-color="#ffffff"></stop><stop offset="1" stop-color="#ff34fb"></stop></linearGradient><filter id="editing-shadow" x="-100%" y="-100%" width="300%" height="300%"><feGaussianBlur stdDeviation="2"></feGaussianBlur><feComposite operator="in" in2="SourceGraphic"></feComposite><feGaussianBlur stdDeviation="1"></feGaussianBlur></filter></defs><g transform="translate(250,75)"><g transform="translate(-22.299999999999997, -1.2)"><g transform="skewX(45)"><g filter="url(#editing-shadow)"><g transform="translate(-176.9050121307373, 32.540000915527344)"><path d="M40.32 13.42L12.10 13.42L18.59 6.62L34.15 6.62L40.32 13.42ZM10.27 10.65L10.27-17.51L17.01-10.96L17.01 4.47L10.27 10.65ZM18.46-43.79L12.03-50.59L40.13-50.59L34.02-43.79L18.46-43.79ZM16.82-26.14L10.08-19.72L10.08-47.88L16.82-41.77L16.82-26.14ZM89.71 13.42L61.55 13.42L68.04 6.62L83.60 6.62L89.71 13.42ZM59.66 10.65L59.66-17.51L66.47-10.96L66.47 4.47L59.66 10.65ZM91.73-17.51L91.73 10.65L84.92 4.16L84.92-11.34L91.73-17.51ZM67.98-43.79L61.49-50.59L89.65-50.59L83.41-43.79L67.98-43.79ZM66.28-26.14L59.47-19.72L59.47-47.88L66.28-41.77L66.28-26.14ZM84.73-41.39L91.54-47.88L91.54-19.72L84.73-25.83L84.73-41.39ZM107.16 10.65L107.16-17.51L113.97-10.96L113.97 4.47L107.16 10.65ZM145.53-17.51L145.53 10.65L138.73 4.16L138.73-11.34L145.53-17.51ZM124.36-36.41L124.93-33.64L125.24-30.87L119.76-31.37L107.10-43.16L106.22-48.57L111.70-48.07L124.36-36.41ZM113.84-26.14L107.04-19.72L107.04-40.32L113.84-34.15L113.84-26.14ZM138.60-33.83L145.40-40.32L145.40-19.72L138.60-25.83L138.60-33.83ZM126.76-30.87L127.07-33.64L127.64-36.41L140.30-48.07L145.78-48.57L144.90-43.16L132.24-31.37L126.76-30.87ZM157.56 10.65L157.56-17.51L164.37-10.96L164.37 4.47L157.56 10.65ZM195.93-17.51L195.93 10.65L189.13 4.16L189.13-11.34L195.93-17.51ZM174.76-36.41L175.33-33.64L175.64-30.87L170.16-31.37L157.50-43.16L156.62-48.57L162.10-48.07L174.76-36.41ZM164.24-26.14L157.44-19.72L157.44-40.32L164.24-34.15L164.24-26.14ZM189-33.83L195.80-40.32L195.80-19.72L189-25.83L189-33.83ZM177.16-30.87L177.47-33.64L178.04-36.41L190.70-48.07L196.18-48.57L195.30-43.16L182.64-31.37L177.16-30.87ZM230.26-17.51L230.26 10.65L223.46 4.16L223.46-11.34L230.26-17.51ZM223.33-41.39L230.14-47.88L230.14-19.72L223.33-25.83L223.33-41.39ZM280.67-17.51L280.67 10.65L273.86 4.16L273.86-11.34L280.67-17.51ZM277.39-44.92L257.86-44.92L257.86-44.92Q255.65-46.68 253.45-48.26L253.45-48.26L257.86-51.66L296.54-51.66L300.95-48.26L296.54-44.92L280.48-44.92L280.48-19.72L273.67-25.83L273.67-41.39L277.39-44.92ZM341.71 13.42L313.55 13.42L320.04 6.62L335.60 6.62L341.71 13.42ZM343.73-17.51L343.73 10.65L336.92 4.16L336.92-11.34L343.73-17.51ZM336.17-15.25L318.97-15.25L318.97-15.25Q316.76-17.01 314.50-18.71L314.50-18.71L318.97-22.05L336.17-22.05L340.58-18.71L336.17-15.25ZM319.98-43.79L313.49-50.59L341.65-50.59L335.41-43.79L319.98-43.79ZM318.28-26.14L311.47-19.72L311.47-47.88L318.28-41.77L318.28-26.14Z" fill="url(#editing-shadow-gradient1)"></path></g></g></g></g><g><g transform="translate(-176.9050121307373, 32.540000915527344)"><path d="M40.32 13.42L12.10 13.42L18.59 6.62L34.15 6.62L40.32 13.42ZM10.27 10.65L10.27-17.51L17.01-10.96L17.01 4.47L10.27 10.65ZM18.46-43.79L12.03-50.59L40.13-50.59L34.02-43.79L18.46-43.79ZM16.82-26.14L10.08-19.72L10.08-47.88L16.82-41.77L16.82-26.14ZM89.71 13.42L61.55 13.42L68.04 6.62L83.60 6.62L89.71 13.42ZM59.66 10.65L59.66-17.51L66.47-10.96L66.47 4.47L59.66 10.65ZM91.73-17.51L91.73 10.65L84.92 4.16L84.92-11.34L91.73-17.51ZM67.98-43.79L61.49-50.59L89.65-50.59L83.41-43.79L67.98-43.79ZM66.28-26.14L59.47-19.72L59.47-47.88L66.28-41.77L66.28-26.14ZM84.73-41.39L91.54-47.88L91.54-19.72L84.73-25.83L84.73-41.39ZM107.16 10.65L107.16-17.51L113.97-10.96L113.97 4.47L107.16 10.65ZM145.53-17.51L145.53 10.65L138.73 4.16L138.73-11.34L145.53-17.51ZM124.36-36.41L124.93-33.64L125.24-30.87L119.76-31.37L107.10-43.16L106.22-48.57L111.70-48.07L124.36-36.41ZM113.84-26.14L107.04-19.72L107.04-40.32L113.84-34.15L113.84-26.14ZM138.60-33.83L145.40-40.32L145.40-19.72L138.60-25.83L138.60-33.83ZM126.76-30.87L127.07-33.64L127.64-36.41L140.30-48.07L145.78-48.57L144.90-43.16L132.24-31.37L126.76-30.87ZM157.56 10.65L157.56-17.51L164.37-10.96L164.37 4.47L157.56 10.65ZM195.93-17.51L195.93 10.65L189.13 4.16L189.13-11.34L195.93-17.51ZM174.76-36.41L175.33-33.64L175.64-30.87L170.16-31.37L157.50-43.16L156.62-48.57L162.10-48.07L174.76-36.41ZM164.24-26.14L157.44-19.72L157.44-40.32L164.24-34.15L164.24-26.14ZM189-33.83L195.80-40.32L195.80-19.72L189-25.83L189-33.83ZM177.16-30.87L177.47-33.64L178.04-36.41L190.70-48.07L196.18-48.57L195.30-43.16L182.64-31.37L177.16-30.87ZM230.26-17.51L230.26 10.65L223.46 4.16L223.46-11.34L230.26-17.51ZM223.33-41.39L230.14-47.88L230.14-19.72L223.33-25.83L223.33-41.39ZM280.67-17.51L280.67 10.65L273.86 4.16L273.86-11.34L280.67-17.51ZM277.39-44.92L257.86-44.92L257.86-44.92Q255.65-46.68 253.45-48.26L253.45-48.26L257.86-51.66L296.54-51.66L300.95-48.26L296.54-44.92L280.48-44.92L280.48-19.72L273.67-25.83L273.67-41.39L277.39-44.92ZM341.71 13.42L313.55 13.42L320.04 6.62L335.60 6.62L341.71 13.42ZM343.73-17.51L343.73 10.65L336.92 4.16L336.92-11.34L343.73-17.51ZM336.17-15.25L318.97-15.25L318.97-15.25Q316.76-17.01 314.50-18.71L314.50-18.71L318.97-22.05L336.17-22.05L340.58-18.71L336.17-15.25ZM319.98-43.79L313.49-50.59L341.65-50.59L335.41-43.79L319.98-43.79ZM318.28-26.14L311.47-19.72L311.47-47.88L318.28-41.77L318.28-26.14Z" fill="url(#editing-shadow-gradient2)"></path></g></g></g><style>text {
  font-size: 64px;
  font-family: Arial Black;
  dominant-baseline: central;
  text-anchor: middle;
}</style></svg>