<svg width="431.27191162109375px" height="114.8px" xmlns="http://www.w3.org/2000/svg" viewBox="34.364044189453125 17.6 431.27191162109375 114.8" style="background: rgba(0, 0, 0, 0);" preserveAspectRatio="xMidYMid"><defs><filter id="editing-extrude-glow"><feFlood flood-color="#333333" result="flood-1"></feFlood><feMorphology operator="erode" radius="1" in="SourceAlpha" result="erode"></feMorphology><feComposite operator="in" in="flood-1" in2="erode" result="comp1"></feComposite><feConvolveMatrix order="3,3" divisor="1" in="comp1" result="convolve" kernelMatrix="0 0 0 1 1 1 0 0 0"></feConvolveMatrix><feOffset dx="-3" dy="0" in="convolve" result="extrude"></feOffset><feComposite operator="in" in="flood-1" in2="extrude" result="comp-extrude"></feComposite><feFlood flood-color="#000000" result="flood-2"></feFlood><feComposite operator="in" in="flood-2" in2="SourceAlpha" result="comp2"></feComposite><feMorphology operator="dilate" radius="1" in="comp2" result="dilate"></feMorphology><feOffset dx="-4.5" dy="0" in="dilate" result="offset"></feOffset><feGaussianBlur in="offset" stdDeviation="5.8" result="blur"></feGaussianBlur><feComponentTransfer in="blur" result="shadow"><feFuncA type="linear" slope="0.8" intercept="-0.2"></feFuncA></feComponentTransfer><feMerge><feMergeNode in="shadow"></feMergeNode><feMergeNode in="comp-extrude"></feMergeNode><feMergeNode in="SourceGraphic"></feMergeNode></feMerge></filter></defs><g filter="url(#editing-extrude-glow)"><g transform="translate(98.36999416351318, 102.88999938964844)"><path d="M34.56 11.50L10.37 11.50L15.93 5.67L29.27 5.67L34.56 11.50ZM8.80 9.13L8.80-15.01L14.58-9.40L14.58 3.83L8.80 9.13ZM15.82-37.53L10.31-43.36L34.40-43.36L29.16-37.53L15.82-37.53ZM14.42-22.41L8.64-16.90L8.64-41.04L14.42-35.80L14.42-22.41ZM76.90 11.50L52.76 11.50L58.32 5.67L71.66 5.67L76.90 11.50ZM51.14 9.13L51.14-15.01L56.97-9.40L56.97 3.83L51.14 9.13ZM78.62-15.01L78.62 9.13L72.79 3.56L72.79-9.72L78.62-15.01ZM58.27-37.53L52.70-43.36L76.84-43.36L71.50-37.53L58.27-37.53ZM56.81-22.41L50.98-16.90L50.98-41.04L56.81-35.80L56.81-22.41ZM72.63-35.48L78.46-41.04L78.46-16.90L72.63-22.14L72.63-35.48ZM91.85 9.13L91.85-15.01L97.69-9.40L97.69 3.83L91.85 9.13ZM124.74-15.01L124.74 9.13L118.91 3.56L118.91-9.72L124.74-15.01ZM106.60-31.21L107.08-28.84L107.35-26.46L102.65-26.89L91.80-36.99L91.04-41.63L95.74-41.20L106.60-31.21ZM97.58-22.41L91.75-16.90L91.75-34.56L97.58-29.27L97.58-22.41ZM118.80-29.00L124.63-34.56L124.63-16.90L118.80-22.14L118.80-29.00ZM108.65-26.46L108.92-28.84L109.40-31.21L120.26-41.20L124.96-41.63L124.20-36.99L113.35-26.89L108.65-26.46ZM135.05 9.13L135.05-15.01L140.89-9.40L140.89 3.83L135.05 9.13ZM167.94-15.01L167.94 9.13L162.11 3.56L162.11-9.72L167.94-15.01ZM149.80-31.21L150.28-28.84L150.55-26.46L145.85-26.89L135.00-36.99L134.24-41.63L138.94-41.20L149.80-31.21ZM140.78-22.41L134.95-16.90L134.95-34.56L140.78-29.27L140.78-22.41ZM162.00-29.00L167.83-34.56L167.83-16.90L162.00-22.14L162.00-29.00ZM151.85-26.46L152.12-28.84L152.60-31.21L163.46-41.20L168.16-41.63L167.40-36.99L156.55-26.89L151.85-26.46ZM197.37-15.01L197.37 9.13L191.54 3.56L191.54-9.72L197.37-15.01ZM191.43-35.48L197.26-41.04L197.26-16.90L191.43-22.14L191.43-35.48ZM240.57-15.01L240.57 9.13L234.74 3.56L234.74-9.72L240.57-15.01ZM237.76-38.50L221.02-38.50L221.02-38.50Q219.13-40.01 217.24-41.36L217.24-41.36L221.02-44.28L254.18-44.28L257.96-41.36L254.18-38.50L240.41-38.50L240.41-16.90L234.58-22.14L234.58-35.48L237.76-38.50ZM292.90 11.50L268.76 11.50L274.32 5.67L287.66 5.67L292.90 11.50ZM294.62-15.01L294.62 9.13L288.79 3.56L288.79-9.72L294.62-15.01ZM288.14-13.07L273.40-13.07L273.40-13.07Q271.51-14.58 269.57-16.04L269.57-16.04L273.40-18.90L288.14-18.90L291.92-16.04L288.14-13.07ZM274.27-37.53L268.70-43.36L292.84-43.36L287.50-37.53L274.27-37.53ZM272.81-22.41L266.98-16.90L266.98-41.04L272.81-35.80L272.81-22.41Z" fill="#eb6cc2"></path></g></g><style>text {
  font-size: 64px;
  font-family: Arial Black;
  dominant-baseline: central;
  text-anchor: middle;
}</style></svg>