<svg width="313.765625px" height="114.8px" xmlns="http://www.w3.org/2000/svg" viewBox="93.1171875 17.6 313.765625 114.8" style="background: rgba(0, 0, 0, 0);" preserveAspectRatio="xMidYMid"><defs><filter id="editing-extrude-glow"><feFlood flood-color="#333333" result="flood-1"></feFlood><feMorphology operator="erode" radius="1" in="SourceAlpha" result="erode"></feMorphology><feComposite operator="in" in="flood-1" in2="erode" result="comp1"></feComposite><feConvolveMatrix order="3,3" divisor="1" in="comp1" result="convolve" kernelMatrix="0 0 0 1 1 1 0 0 0"></feConvolveMatrix><feOffset dx="-3" dy="0" in="convolve" result="extrude"></feOffset><feComposite operator="in" in="flood-1" in2="extrude" result="comp-extrude"></feComposite><feFlood flood-color="#000000" result="flood-2"></feFlood><feComposite operator="in" in="flood-2" in2="SourceAlpha" result="comp2"></feComposite><feMorphology operator="dilate" radius="1" in="comp2" result="dilate"></feMorphology><feOffset dx="-4.5" dy="0" in="dilate" result="offset"></feOffset><feGaussianBlur in="offset" stdDeviation="5.8" result="blur"></feGaussianBlur><feComponentTransfer in="blur" result="shadow"><feFuncA type="linear" slope="0.8" intercept="-0.2"></feFuncA></feComponentTransfer><feMerge><feMergeNode in="shadow"></feMergeNode><feMergeNode in="comp-extrude"></feMergeNode><feMergeNode in="SourceGraphic"></feMergeNode></feMerge></filter></defs><g filter="url(#editing-extrude-glow)"><g transform="translate(138.2999792098999, 102.88999938964844)"><path d="M34.56 11.50L10.37 11.50L15.93 5.67L29.27 5.67L34.56 11.50ZM8.80 9.13L8.80-15.01L14.58-9.40L14.58 3.83L8.80 9.13ZM15.82-37.53L10.31-43.36L34.40-43.36L29.16-37.53L15.82-37.53ZM14.42-22.41L8.64-16.90L8.64-41.04L14.42-35.80L14.42-22.41ZM76.90 11.50L52.76 11.50L58.32 5.67L71.66 5.67L76.90 11.50ZM51.14 9.13L51.14-15.01L56.97-9.40L56.97 3.83L51.14 9.13ZM78.62-15.01L78.62 9.13L72.79 3.56L72.79-9.72L78.62-15.01ZM58.27-37.53L52.70-43.36L76.84-43.36L71.50-37.53L58.27-37.53ZM56.81-22.41L50.98-16.90L50.98-41.04L56.81-35.80L56.81-22.41ZM72.63-35.48L78.46-41.04L78.46-16.90L72.63-22.14L72.63-35.48ZM120.10 11.50L95.96 11.50L101.52 5.67L114.86 5.67L120.10 11.50ZM94.34 9.13L94.34-15.01L100.17-9.40L100.17 3.83L94.34 9.13ZM121.82-15.01L121.82 9.13L115.99 3.56L115.99-9.72L121.82-15.01ZM100.01-22.41L94.18-16.90L94.18-41.04L100.01-35.80L100.01-22.41ZM115.83-35.48L121.66-41.04L121.66-16.90L115.83-22.14L115.83-35.48ZM140.67-25.16L134.84-19.60L134.84-43.85L140.67-38.50L140.67-25.16ZM161.89-38.23L167.72-43.85L167.72-19.60L161.89-24.95L161.89-38.23ZM134.68 6.43L134.68-17.77L140.51-12.20L140.51 1.13L134.68 6.43ZM167.56-17.77L167.56 6.43L161.73 0.81L161.73-12.47L167.56-17.77ZM158.76-2.00L143.42-27.86L143.42-38.83L158.76-13.01L158.76-2.00ZM197.37-15.01L197.37 9.13L191.54 3.56L191.54-9.72L197.37-15.01ZM194.56-38.50L177.82-38.50L177.82-38.50Q175.93-40.01 174.04-41.36L174.04-41.36L177.82-44.28L210.98-44.28L214.76-41.36L210.98-38.50L197.21-38.50L197.21-16.90L191.38-22.14L191.38-35.48L194.56-38.50Z" fill="#eb6cc2"></path></g></g><style>text {
  font-size: 64px;
  font-family: Arial Black;
  dominant-baseline: central;
  text-anchor: middle;
}</style></svg>