<svg width="510px" height="65px" xmlns="http://www.w3.org/2000/svg" viewBox="-260.64118652343745 9.88648071289063 1021.2823730468749 130.22703857421874" style="background: none;" preserveAspectRatio="xMidYMid"><defs><linearGradient id="editing-shadow-gradient1" x1="0" x2="0" y1="0" y2="1"><stop offset="0" stop-color="#000000" stop-opacity="0"></stop><stop offset="0.2" stop-color="#000000" stop-opacity="0"></stop><stop offset="1" stop-color="#000000" stop-opacity="1"></stop></linearGradient><linearGradient id="editing-shadow-gradient2" x1="-0.5" x2="1.5" y1="0.5" y2="0.5"><stop offset="0" stop-color="#ffffff"></stop><stop offset="1" stop-color="#ff34fb"></stop></linearGradient><filter id="editing-shadow" x="-100%" y="-100%" width="300%" height="300%"><feGaussianBlur stdDeviation="2"></feGaussianBlur><feComposite operator="in" in2="SourceGraphic"></feComposite><feGaussianBlur stdDeviation="1"></feGaussianBlur></filter></defs><g transform="translate(250,75)"><g transform="translate(-22.299999999999997, -1.2)"><g transform="skewX(45)"><g filter="url(#editing-shadow)"><g transform="translate(-327.125, 32.540000915527344)"><path d="M49.90-49.58L49.90-33.77L28.22 9.07L28.22-6.93L49.90-49.58ZM22.18 9.07L0.50-33.77L0.50-49.58L22.18-6.93L22.18 9.07ZM79.06-17.51L79.06 10.65L72.26 4.16L72.26-11.34L79.06-17.51ZM72.13-41.39L78.94-47.88L78.94-19.72L72.13-25.83L72.13-41.39ZM140.11 13.42L111.95 13.42L118.44 6.62L134.00 6.62L140.11 13.42ZM142.13-17.51L142.13 10.65L135.32 4.16L135.32-11.34L142.13-17.51ZM134.57-15.25L117.37-15.25L117.37-15.25Q115.16-17.01 112.90-18.71L112.90-18.71L117.37-22.05L134.57-22.05L138.98-18.71L134.57-15.25ZM118.38-43.79L111.89-50.59L140.05-50.59L133.81-43.79L118.38-43.79ZM116.68-26.14L109.87-19.72L109.87-47.88L116.68-41.77L116.68-26.14ZM179.86-17.51L179.86 10.65L173.06 4.16L173.06-11.34L179.86-17.51ZM172.94-41.39L179.74-47.88L179.74-19.72L172.94-25.83L172.94-41.39ZM230.26-17.51L230.26 10.65L223.46 4.16L223.46-11.34L230.26-17.51ZM226.99-44.92L207.46-44.92L207.46-44.92Q205.25-46.68 203.05-48.26L203.05-48.26L207.46-51.66L246.14-51.66L250.55-48.26L246.14-44.92L230.08-44.92L230.08-19.72L223.27-25.83L223.27-41.39L226.99-44.92ZM291.31 13.42L263.15 13.42L269.64 6.62L285.20 6.62L291.31 13.42ZM261.26 10.65L261.26-17.51L268.06-10.96L268.06 4.47L261.26 10.65ZM293.33-17.51L293.33 10.65L286.52 4.16L286.52-11.34L293.33-17.51ZM269.58-43.79L263.09-50.59L291.25-50.59L285.01-43.79L269.58-43.79ZM267.88-26.14L261.07-19.72L261.07-47.88L267.88-41.77L267.88-26.14ZM286.33-41.39L293.14-47.88L293.14-19.72L286.33-25.83L286.33-41.39ZM311.72-17.51L318.53-9.45L318.53 4.47L311.72 10.65L311.72-17.51ZM340.33-3.02L340.33-3.02ZM322.12-12.16L332.58-11.09L342.28-0.88L341.59 8.19L341.59 8.19Q332.58-1.26 332.39-1.45L332.39-1.45L332.39-1.45Q332.26-1.64 332.01-1.83L332.01-1.83L332.01-1.83Q331.76-2.02 331.63-2.21L331.63-2.21L322.12-12.16ZM311.72 10.65L311.72-17.51L318.53-10.96L318.53 4.47L311.72 10.65ZM336.23-15.25L318.97-15.25L318.97-15.25Q316.76-17.07 314.56-18.71L314.56-18.71L318.97-22.05L336.23-22.05L340.64-18.71L336.23-15.25ZM319.98-43.79L313.55-50.59L341.65-50.59L335.54-43.79L319.98-43.79ZM318.34-26.14L311.53-19.72L311.53-47.88L318.34-41.77L318.34-26.14ZM336.86-41.39L343.66-47.88L343.66-19.72L336.86-25.83L336.86-41.39ZM331.63-2.21L322.12-12.16L331.57-12.16L331.57-12.16Q333.65-9.95 337.52-5.89L337.52-5.89L337.52-5.89Q341.40-1.83 342.28-0.88L342.28-0.88L341.59 8.19L341.59 8.19Q332.58-1.26 332.39-1.45L332.39-1.45L332.39-1.45Q332.26-1.64 332.01-1.83L332.01-1.83L332.01-1.83Q331.76-2.02 331.63-2.21L331.63-2.21ZM443.52 13.42L415.30 13.42L421.78 6.62L437.35 6.62L443.52 13.42ZM413.47 10.65L413.47-17.51L420.21-10.96L420.21 4.47L413.47 10.65ZM421.66-43.79L415.23-50.59L443.33-50.59L437.22-43.79L421.66-43.79ZM420.02-26.14L413.28-19.72L413.28-47.88L420.02-41.77L420.02-26.14ZM492.91 13.42L464.75 13.42L471.24 6.62L486.80 6.62L492.91 13.42ZM462.86 10.65L462.86-17.51L469.66-10.96L469.66 4.47L462.86 10.65ZM494.93-17.51L494.93 10.65L488.12 4.16L488.12-11.34L494.93-17.51ZM471.18-43.79L464.69-50.59L492.85-50.59L486.61-43.79L471.18-43.79ZM469.48-26.14L462.67-19.72L462.67-47.88L469.48-41.77L469.48-26.14ZM487.93-41.39L494.74-47.88L494.74-19.72L487.93-25.83L487.93-41.39ZM543.31 13.42L515.15 13.42L521.64 6.62L537.20 6.62L543.31 13.42ZM513.26 10.65L513.26-17.51L520.06-10.96L520.06 4.47L513.26 10.65ZM545.33-17.51L545.33 10.65L538.52 4.16L538.52-11.34L545.33-17.51ZM519.88-26.14L513.07-19.72L513.07-47.88L519.88-41.77L519.88-26.14ZM538.33-41.39L545.14-47.88L545.14-19.72L538.33-25.83L538.33-41.39ZM567.31-29.36L560.51-22.87L560.51-51.16L567.31-44.92L567.31-29.36ZM592.07-44.60L598.88-51.16L598.88-22.87L592.07-29.11L592.07-44.60ZM560.32 7.50L560.32-20.73L567.13-14.24L567.13 1.32L560.32 7.50ZM598.69-20.73L598.69 7.50L591.88 0.95L591.88-14.55L598.69-20.73ZM588.42-2.33L570.53-32.51L570.53-45.30L588.42-15.18L588.42-2.33ZM633.46-17.51L633.46 10.65L626.66 4.16L626.66-11.34L633.46-17.51ZM630.19-44.92L610.66-44.92L610.66-44.92Q608.45-46.68 606.25-48.26L606.25-48.26L610.66-51.66L649.34-51.66L653.75-48.26L649.34-44.92L633.28-44.92L633.28-19.72L626.47-25.83L626.47-41.39L630.19-44.92Z" fill="url(#editing-shadow-gradient1)"></path></g></g></g></g><g><g transform="translate(-327.125, 32.540000915527344)"><path d="M49.90-49.58L49.90-33.77L28.22 9.07L28.22-6.93L49.90-49.58ZM22.18 9.07L0.50-33.77L0.50-49.58L22.18-6.93L22.18 9.07ZM79.06-17.51L79.06 10.65L72.26 4.16L72.26-11.34L79.06-17.51ZM72.13-41.39L78.94-47.88L78.94-19.72L72.13-25.83L72.13-41.39ZM140.11 13.42L111.95 13.42L118.44 6.62L134.00 6.62L140.11 13.42ZM142.13-17.51L142.13 10.65L135.32 4.16L135.32-11.34L142.13-17.51ZM134.57-15.25L117.37-15.25L117.37-15.25Q115.16-17.01 112.90-18.71L112.90-18.71L117.37-22.05L134.57-22.05L138.98-18.71L134.57-15.25ZM118.38-43.79L111.89-50.59L140.05-50.59L133.81-43.79L118.38-43.79ZM116.68-26.14L109.87-19.72L109.87-47.88L116.68-41.77L116.68-26.14ZM179.86-17.51L179.86 10.65L173.06 4.16L173.06-11.34L179.86-17.51ZM172.94-41.39L179.74-47.88L179.74-19.72L172.94-25.83L172.94-41.39ZM230.26-17.51L230.26 10.65L223.46 4.16L223.46-11.34L230.26-17.51ZM226.99-44.92L207.46-44.92L207.46-44.92Q205.25-46.68 203.05-48.26L203.05-48.26L207.46-51.66L246.14-51.66L250.55-48.26L246.14-44.92L230.08-44.92L230.08-19.72L223.27-25.83L223.27-41.39L226.99-44.92ZM291.31 13.42L263.15 13.42L269.64 6.62L285.20 6.62L291.31 13.42ZM261.26 10.65L261.26-17.51L268.06-10.96L268.06 4.47L261.26 10.65ZM293.33-17.51L293.33 10.65L286.52 4.16L286.52-11.34L293.33-17.51ZM269.58-43.79L263.09-50.59L291.25-50.59L285.01-43.79L269.58-43.79ZM267.88-26.14L261.07-19.72L261.07-47.88L267.88-41.77L267.88-26.14ZM286.33-41.39L293.14-47.88L293.14-19.72L286.33-25.83L286.33-41.39ZM311.72-17.51L318.53-9.45L318.53 4.47L311.72 10.65L311.72-17.51ZM340.33-3.02L340.33-3.02ZM322.12-12.16L332.58-11.09L342.28-0.88L341.59 8.19L341.59 8.19Q332.58-1.26 332.39-1.45L332.39-1.45L332.39-1.45Q332.26-1.64 332.01-1.83L332.01-1.83L332.01-1.83Q331.76-2.02 331.63-2.21L331.63-2.21L322.12-12.16ZM311.72 10.65L311.72-17.51L318.53-10.96L318.53 4.47L311.72 10.65ZM336.23-15.25L318.97-15.25L318.97-15.25Q316.76-17.07 314.56-18.71L314.56-18.71L318.97-22.05L336.23-22.05L340.64-18.71L336.23-15.25ZM319.98-43.79L313.55-50.59L341.65-50.59L335.54-43.79L319.98-43.79ZM318.34-26.14L311.53-19.72L311.53-47.88L318.34-41.77L318.34-26.14ZM336.86-41.39L343.66-47.88L343.66-19.72L336.86-25.83L336.86-41.39ZM331.63-2.21L322.12-12.16L331.57-12.16L331.57-12.16Q333.65-9.95 337.52-5.89L337.52-5.89L337.52-5.89Q341.40-1.83 342.28-0.88L342.28-0.88L341.59 8.19L341.59 8.19Q332.58-1.26 332.39-1.45L332.39-1.45L332.39-1.45Q332.26-1.64 332.01-1.83L332.01-1.83L332.01-1.83Q331.76-2.02 331.63-2.21L331.63-2.21ZM443.52 13.42L415.30 13.42L421.78 6.62L437.35 6.62L443.52 13.42ZM413.47 10.65L413.47-17.51L420.21-10.96L420.21 4.47L413.47 10.65ZM421.66-43.79L415.23-50.59L443.33-50.59L437.22-43.79L421.66-43.79ZM420.02-26.14L413.28-19.72L413.28-47.88L420.02-41.77L420.02-26.14ZM492.91 13.42L464.75 13.42L471.24 6.62L486.80 6.62L492.91 13.42ZM462.86 10.65L462.86-17.51L469.66-10.96L469.66 4.47L462.86 10.65ZM494.93-17.51L494.93 10.65L488.12 4.16L488.12-11.34L494.93-17.51ZM471.18-43.79L464.69-50.59L492.85-50.59L486.61-43.79L471.18-43.79ZM469.48-26.14L462.67-19.72L462.67-47.88L469.48-41.77L469.48-26.14ZM487.93-41.39L494.74-47.88L494.74-19.72L487.93-25.83L487.93-41.39ZM543.31 13.42L515.15 13.42L521.64 6.62L537.20 6.62L543.31 13.42ZM513.26 10.65L513.26-17.51L520.06-10.96L520.06 4.47L513.26 10.65ZM545.33-17.51L545.33 10.65L538.52 4.16L538.52-11.34L545.33-17.51ZM519.88-26.14L513.07-19.72L513.07-47.88L519.88-41.77L519.88-26.14ZM538.33-41.39L545.14-47.88L545.14-19.72L538.33-25.83L538.33-41.39ZM567.31-29.36L560.51-22.87L560.51-51.16L567.31-44.92L567.31-29.36ZM592.07-44.60L598.88-51.16L598.88-22.87L592.07-29.11L592.07-44.60ZM560.32 7.50L560.32-20.73L567.13-14.24L567.13 1.32L560.32 7.50ZM598.69-20.73L598.69 7.50L591.88 0.95L591.88-14.55L598.69-20.73ZM588.42-2.33L570.53-32.51L570.53-45.30L588.42-15.18L588.42-2.33ZM633.46-17.51L633.46 10.65L626.66 4.16L626.66-11.34L633.46-17.51ZM630.19-44.92L610.66-44.92L610.66-44.92Q608.45-46.68 606.25-48.26L606.25-48.26L610.66-51.66L649.34-51.66L653.75-48.26L649.34-44.92L633.28-44.92L633.28-19.72L626.47-25.83L626.47-41.39L630.19-44.92Z" fill="url(#editing-shadow-gradient2)"></path></g></g></g><style>text {
  font-size: 20px;
  font-family: Arial Black;
  dominant-baseline: central;
  text-anchor: middle;
}</style></svg>
