<svg width="490.0250366210937px" height="114.8px" xmlns="http://www.w3.org/2000/svg" viewBox="4.987481689453148 17.6 490.0250366210937 114.8" style="background: rgba(0, 0, 0, 0);" preserveAspectRatio="xMidYMid"><defs><filter id="editing-extrude-glow"><feFlood flood-color="#333333" result="flood-1"></feFlood><feMorphology operator="erode" radius="1" in="SourceAlpha" result="erode"></feMorphology><feComposite operator="in" in="flood-1" in2="erode" result="comp1"></feComposite><feConvolveMatrix order="3,3" divisor="1" in="comp1" result="convolve" kernelMatrix="0 0 0 1 1 1 0 0 0"></feConvolveMatrix><feOffset dx="-3" dy="0" in="convolve" result="extrude"></feOffset><feComposite operator="in" in="flood-1" in2="extrude" result="comp-extrude"></feComposite><feFlood flood-color="#000000" result="flood-2"></feFlood><feComposite operator="in" in="flood-2" in2="SourceAlpha" result="comp2"></feComposite><feMorphology operator="dilate" radius="1" in="comp2" result="dilate"></feMorphology><feOffset dx="-4.5" dy="0" in="dilate" result="offset"></feOffset><feGaussianBlur in="offset" stdDeviation="5.8" result="blur"></feGaussianBlur><feComponentTransfer in="blur" result="shadow"><feFuncA type="linear" slope="0.8" intercept="-0.2"></feFuncA></feComponentTransfer><feMerge><feMergeNode in="shadow"></feMergeNode><feMergeNode in="comp-extrude"></feMergeNode><feMergeNode in="SourceGraphic"></feMergeNode></feMerge></filter></defs><g filter="url(#editing-extrude-glow)"><g transform="translate(80.87497740983963, 102.88999938964844)"><path d="M42.77-42.50L42.77-28.94L24.19 7.78L24.19-5.94L42.77-42.50ZM19.01 7.78L0.43-28.94L0.43-42.50L19.01-5.94L19.01 7.78ZM67.77-15.01L67.77 9.13L61.94 3.56L61.94-9.72L67.77-15.01ZM61.83-35.48L67.66-41.04L67.66-16.90L61.83-22.14L61.83-35.48ZM120.10 11.50L95.96 11.50L101.52 5.67L114.86 5.67L120.10 11.50ZM121.82-15.01L121.82 9.13L115.99 3.56L115.99-9.72L121.82-15.01ZM115.34-13.07L100.60-13.07L100.60-13.07Q98.71-14.58 96.77-16.04L96.77-16.04L100.60-18.90L115.34-18.90L119.12-16.04L115.34-13.07ZM101.47-37.53L95.90-43.36L120.04-43.36L114.70-37.53L101.47-37.53ZM100.01-22.41L94.18-16.90L94.18-41.04L100.01-35.80L100.01-22.41ZM154.17-15.01L154.17 9.13L148.34 3.56L148.34-9.72L154.17-15.01ZM148.23-35.48L154.06-41.04L154.06-16.90L148.23-22.14L148.23-35.48ZM197.37-15.01L197.37 9.13L191.54 3.56L191.54-9.72L197.37-15.01ZM194.56-38.50L177.82-38.50L177.82-38.50Q175.93-40.01 174.04-41.36L174.04-41.36L177.82-44.28L210.98-44.28L214.76-41.36L210.98-38.50L197.21-38.50L197.21-16.90L191.38-22.14L191.38-35.48L194.56-38.50ZM249.70 11.50L225.56 11.50L231.12 5.67L244.46 5.67L249.70 11.50ZM223.94 9.13L223.94-15.01L229.77-9.40L229.77 3.83L223.94 9.13ZM251.42-15.01L251.42 9.13L245.59 3.56L245.59-9.72L251.42-15.01ZM231.07-37.53L225.50-43.36L249.64-43.36L244.30-37.53L231.07-37.53ZM229.61-22.41L223.78-16.90L223.78-41.04L229.61-35.80L229.61-22.41ZM245.43-35.48L251.26-41.04L251.26-16.90L245.43-22.14L245.43-35.48ZM267.19-15.01L273.02-8.10L273.02 3.83L267.19 9.13L267.19-15.01ZM291.71-2.59L291.71-2.59ZM276.10-10.42L285.07-9.50L293.38-0.76L292.79 7.02L292.79 7.02Q285.07-1.08 284.90-1.24L284.90-1.24L284.90-1.24Q284.80-1.40 284.58-1.57L284.58-1.57L284.58-1.57Q284.36-1.73 284.26-1.89L284.26-1.89L276.10-10.42ZM267.19 9.13L267.19-15.01L273.02-9.40L273.02 3.83L267.19 9.13ZM288.20-13.07L273.40-13.07L273.40-13.07Q271.51-14.63 269.62-16.04L269.62-16.04L273.40-18.90L288.20-18.90L291.98-16.04L288.20-13.07ZM274.27-37.53L268.76-43.36L292.84-43.36L287.60-37.53L274.27-37.53ZM272.86-22.41L267.03-16.90L267.03-41.04L272.86-35.80L272.86-22.41ZM288.74-35.48L294.57-41.04L294.57-16.90L288.74-22.14L288.74-35.48ZM284.26-1.89L276.10-10.42L284.20-10.42L284.20-10.42Q285.98-8.53 289.31-5.05L289.31-5.05L289.31-5.05Q292.63-1.57 293.38-0.76L293.38-0.76L292.79 7.02L292.79 7.02Q285.07-1.08 284.90-1.24L284.90-1.24L284.90-1.24Q284.80-1.40 284.58-1.57L284.58-1.57L284.58-1.57Q284.36-1.73 284.26-1.89L284.26-1.89ZM336.10 11.50L311.96 11.50L317.52 5.67L330.86 5.67L336.10 11.50ZM337.82-15.01L337.82 9.13L331.99 3.56L331.99-9.72L337.82-15.01ZM331.34-13.07L316.60-13.07L316.60-13.07Q314.71-14.58 312.77-16.04L312.77-16.04L316.60-18.90L331.34-18.90L335.12-16.04L331.34-13.07ZM317.47-37.53L311.90-43.36L336.04-43.36L330.70-37.53L317.47-37.53ZM316.01-22.41L310.18-16.90L310.18-41.04L316.01-35.80L316.01-22.41Z" fill="#eb6cc2"></path></g></g><style>text {
  font-size: 64px;
  font-family: Arial Black;
  dominant-baseline: central;
  text-anchor: middle;
}</style></svg>